<?xml version="1.0" encoding="utf-8"?>
<svg version="1.1" xmlns:xlink="http://www.w3.org/1999/xlink" width="94px" height="158px" xmlns="http://www.w3.org/2000/svg">
  <g transform="matrix(1 0 0 1 -446 -124 )">
    <path d="M 0.111550632911392 79.0416666035156  C 0.111550632911392 35.5129166035156  21.1031487341772 0.229166603515623  47 0.229166603515623  C 72.8968512658228 0.229166603515623  93.8884493670886 35.5129166035156  93.8884493670886 79.0416666035156  C 93.8884493670886 122.570416603516  72.8968512658228 157.854166603516  47 157.854166603516  C 21.1031487341772 157.854166603516  0.111550632911392 122.570416603516  0.111550632911392 79.0416666035156  Z M 44 85.1041666035156  L 44 12.6249583964844  C 23.1710496156299 15.6885417929687  7.3251582278481 44.2550417929688  7.3251582278481 79.0416666035156  C 7.3251582278481 115.873375  25.0874646248764 145.729166603516  47 145.729166603516  C 56.6566160713261 145.729166603516  65.5077125903135 139.929375  72.3870896248764 130.29  L 45.5067832278481 85.1041666035156  L 44 85.1041666035156  Z M 77.4895148055034 121.713583396484  L 77.4895148055034 121.709541603516  C 82.6443039563025 111.336267493089  85.7926405874735 98.5655234947398  86.5137379067692 85  L 55.7044198687945 85  L 77.4895148055034 121.713583396484  Z M 86.5137379067692 73  C 84.7993037974684 40.9934166035156  69.6411097422122 15.5066666035156  50 12.629  L 50 73  L 86.5137379067692 73  Z " fill-rule="nonzero" fill="#1677ff" stroke="none" transform="matrix(1 0 0 1 446 124 )" />
  </g>
</svg>