<?xml version="1.0" encoding="utf-8"?>
<svg version="1.1" xmlns:xlink="http://www.w3.org/1999/xlink" width="107px" height="113px" xmlns="http://www.w3.org/2000/svg">
  <g transform="matrix(1 0 0 1 -426 -312 )">
    <path d="M 106 5.77840909090909  C 106.33125 2.97287109375  104.644895368304 0.70625  102.557589285714 1  L 4.44241071428571 1  C 2.35510463169643 0.70625  0.66875 2.97287109375  1 5.77840909090909  L 1 107.221590909091  C 0.66875 110.02712890625  2.35510463169643 112.29375  4.44241071428571 112  L 102.557589285714 112  C 104.644895368304 112.29375  106.33125 110.02712890625  106 107.221590909091  L 106 5.77840909090909  Z M 97 13  L 97 34  L 72 34  L 72 13  L 97 13  Z M 97 44  L 97 69  L 72 69  L 72 44  L 97 44  Z M 42 69  L 42 44  L 65 44  L 65 69  L 42 69  Z M 65 13  L 65 34  L 42 34  L 42 13  L 65 13  Z M 10 69  L 10 44  L 35 44  L 35 69  L 10 69  Z M 10 34  L 10 13  L 35 13  L 35 34  L 10 34  Z M 10 100  L 10 79  L 35 79  L 35 100  L 10 100  Z M 42 100  L 42 79  L 65 79  L 65 100  L 42 100  Z M 97 79  L 97 100  L 72 100  L 72 79  L 97 79  Z " fill-rule="nonzero" fill="#000000" stroke="none" transform="matrix(1 0 0 1 426 312 )" />
  </g>
</svg>