<svg t="1728733430987" class="icon" viewBox="0 0 1024 1024" version="1.1" xmlns="http://www.w3.org/2000/svg" p-id="11200" width="200" height="200"><path d="M472.5 769.5c-191.2 0-346.7-155.5-346.7-346.7S281.3 76 472.5 76s346.7 155.5 346.7 346.7-155.5 346.8-346.7 346.8z m0-624.1c-152.9 0-277.4 124.4-277.4 277.4s124.4 277.4 277.4 277.4 277.4-124.4 277.4-277.4-124.4-277.4-277.4-277.4z" fill="#A1A0A5" p-id="11201"></path><path d="M699.2 913.5c-17.2 8.4-38 1.4-46.4-15.8l-84.6-172.3c-8.4-17.2-1.4-38 15.8-46.4 17.2-8.4 38-1.4 46.4 15.8L715 867.1c8.5 17.2 1.4 38-15.8 46.4z" fill="#A1A0A5" p-id="11202"></path></svg>